Genre:Comedy | Drama
Language:English
 
http://www.imdb.com/title/tt1033575/

Source:DvdScr Thanks!

Format : AVI
Format/Info : Audio Video Interleave
File size : 1.19 GiB
Duration : 2h 0mn
Overall bit rate : 1 417 Kbps

Video
ID : 0
Format : MPEG-4 Visual
Format profile : Advanced Simple@L5
Format settings, BVOP : Yes
Format settings, QPel : No
Format settings, GMC : No warppoints
Format settings, Matrix : Default (H.263)
Codec ID : XVID
Codec ID/Hint : XviD
Duration : 2h 0mn
Bit rate : 1 254 Kbps
Width : 640 pixels
Height : 280 pixels
Display aspect ratio : 2.25:1
Frame rate : 23.976 fps
Color space : YUV
Chroma subsampling : 4:2:0
Bit depth : 8 bits
Scan type : Progressive
Bits/(Pixel*Frame) : 0.292
Stream size : 1.06 GiB (89%)
Writing library : XviD 1.2.1 (UTC 2008-12-04)

Audio
ID : 1
Format : AC-3
Format/Info : Audio Coding 3
Mode extension : CM (complete main)
Codec ID : 2000
Duration : 1h 55mn
Bit rate mode : Constant
Bit rate : 160 Kbps
Channel(s) : 2 channels
Channel positions : Front: L R
Sampling rate : 48.0 KHz
Bit depth : 16 bits
Stream size : 132 MiB (11%)
Alignment : Aligned on interleaves
Interleave, duration : 43 ms (1.04 video frame)
Interleave, preload duration : 512 ms


Plot:
A land baron tries to re-connect with his two daughters after his wife suffers a boating accident.
 
http://img687.imageshack.us/img687/3410/vlcsnap2012011712h30m03.png 
http://img338.imageshack.us/img338/4253/vlcsnap2012011712h31m00.png 
http://img851.imageshack.us/img851/7195/vlcsnap2012011712h32m54.png 
http://img857.imageshack.us/img857/1273/vlcsnap2012011712h31m53.png 
http://img850.imageshack.us/img850/7979/vlcsnap2012011712h30m31.png